<?xml version="1.0" encoding="utf-8"?>
<svg id="master-artboard" viewBox="0 0 161.5448760986328 140.6425323486328" version="1.1"
    xmlns="http://www.w3.org/2000/svg" x="0px" y="0px" style="enable-background:new 0 0 1400 980;"
    width="54.15448760986328px" height="46.06425323486328px">
    <rect id="ee-background" x="0" y="0" width="161.5448760986328" height="140.6425323486328"
        style="fill: white; fill-opacity: 0; pointer-events: none;" />
    <g transform="matrix(0.32592999935150146, 0, 0, 0.32592999935150146, -14.335607528686523, -96.17414093017578)">
        <path fill="#3f3d56"
            d="M534.25 438.618l-116-138-232.846 2.128L44.156 440.325l2.854 1.834h-1.019v286.165h487.946V442.159l.313-3.541z" />
        <path fill="#dc143c" d="M418.371 300.912L273.455 470.811v257.513h260.482V438.491L418.371 300.912z" />
        <path fill="#fff"
            d="M378.015 585.915h53.197v47.02h-53.197zM378.015 504.529h53.197v46.275h-53.197zM141.602 573.439h53.197v47.02h-53.197zM141.602 492.052h53.197v46.275h-53.197z" />
        <path
            d="M653.71 278.13H300.524a6.548 6.548 0 01-6.54-6.54V109.418a6.548 6.548 0 016.54-6.54H653.71a6.548 6.548 0 016.54 6.54V271.59a6.548 6.548 0 01-6.54 6.54zM300.524 105.494a3.929 3.929 0 00-3.924 3.924V271.59a3.929 3.929 0 003.924 3.924H653.71a3.929 3.929 0 003.924-3.924V109.418a3.929 3.929 0 00-3.924-3.924z"
            fill="#e6e6e6" />
        <path
            d="M 772.872009 293.830994 A 4 5 0 0 1 768.872009 298.830994 A 4 5 0 0 1 764.872009 293.830994 A 4 5 0 0 1 768.872009 288.830994 A 4 5 0 0 1 772.872009 293.830994 Z"
            fill="#c7acaf" />
    </g>
</svg>