<?xml version="1.0" encoding="utf-8"?>
<svg id="master-artboard" viewBox="0 0 274.69091796875 246.99981689453125" version="1.1"
    xmlns="http://www.w3.org/2000/svg" x="0px" y="0px" style="enable-background:new 0 0 1400 980;"
    width="47.469091796875px" height="44.699981689453125px">
    <rect id="ee-background" x="0" y="0" width="274.69091796875" height="246.99981689453125"
        style="fill: white; fill-opacity: 0; pointer-events: none;" />
    <defs>
        <style id="ee-google-fonts">
            @import url(https://fonts.googleapis.com/css?family=Rubik:300,300italic,400,400italic,500,500italic,700,700italic,900,900italic);
        </style>
    </defs>
    <g transform="matrix(0.4656759798526764, 0, 0, 0.4656759798526764, -75.05712985992432, 3.541867733001709)">
        <path
            d="M733.857 193.675h-.2l-114.8 49.02-157.07 67.07a5.066 5.066 0 01-3.88.02l-162.05-67.23-117.62-48.8-.18-.08h-.2a7.008 7.008 0 00-7 7v304a7.008 7.008 0 007 7h556a7.008 7.008 0 007-7v-304a7.008 7.008 0 00-7-7z"
            fill="#fff" />
        <path
            d="M735.856 195.675a.997.997 0 01-.57-.18L458.725 2.893a5.015 5.015 0 00-5.728.01L178.43 195.494a1 1 0 01-1.149-1.638L451.85 1.264a7.022 7.022 0 018.02-.013l276.56 192.603a1 1 0 01-.573 1.82z"
            fill="#3f3d56" style="stroke: rgb(0, 0, 0); stroke-width: 13;" />
        <path fill="#e6e6e6" d="M194.121 202.502L456.132 8.319l264 208-250.5 148.5-136-31-139.511-131.317z" />

        <path
            d="M459.817 310.66a7.564 7.564 0 01-2.87-.563l-161.59-67.048V33.175a7.008 7.008 0 017-7h310a7.008 7.008 0 017 7v210.02l-.304.13-156.28 66.74a7.616 7.616 0 01-2.956.594z"
            fill="#fff" />
        <path
            d="M459.817 311.159a8.072 8.072 0 01-3.06-.599l-161.9-67.177V33.175a7.509 7.509 0 017.5-7.5h310a7.509 7.509 0 017.5 7.5v210.35l-156.888 67a8.11 8.11 0 01-3.152.634zm-162.96-69.112L457.52 308.71a6.118 6.118 0 004.668-.028l155.669-66.478V33.175a5.507 5.507 0 00-5.5-5.5h-310a5.507 5.507 0 00-5.5 5.5z"
            fill="#3f3d56" style="stroke: rgb(0, 0, 0); stroke-width: 13;" />
        <path
            d="M733.857 193.675h-.2l-114.8 49.02-157.07 67.07a5.066 5.066 0 01-3.88.02l-162.05-67.23-117.62-48.8-.18-.08h-.2a7.008 7.008 0 00-7 7v304a7.008 7.008 0 007 7h556a7.008 7.008 0 007-7v-304a7.008 7.008 0 00-7-7zm5 311a5.002 5.002 0 01-5 5h-556a5.002 5.002 0 01-5-5v-304a5.011 5.011 0 014.81-5l118.19 49.04 161.28 66.92a7.12 7.12 0 005.44-.03l156.28-66.74 115.2-49.19a5.016 5.016 0 014.8 5z"
            fill="#3f3d56" style="stroke: rgb(0, 0, 0); stroke-width: 12;" />

        <path
            d="M539.629 184.626h-168a8 8 0 110-16h168a8 8 0 010 16zM539.629 221.626h-168a8 8 0 110-16h168a8 8 0 010 16z"
            fill="#ccc" />
    </g>
</svg>