<?xml version="1.0" encoding="UTF-8"?> <svg xmlns="http://www.w3.org/2000/svg" width="164" height="23" viewBox="0 0 164 23" fill="none"><path d="M52.3079 6.55513H48.0829L41.7018 12.8091V0H38.5138V21.151H41.7018V16.1938L44.2276 13.9271L49.2688 21.151H53.1909L46.5069 11.8442L52.3079 6.55513Z" fill="#1347FF"></path><path d="M22.372 10.6442C22.372 12.7575 21.186 14.4707 19.7229 14.4707C18.2599 14.4707 17.0738 12.7575 17.0738 10.6442C17.0738 8.53091 18.2599 6.81774 19.7229 6.81774C21.186 6.81774 22.372 8.53091 22.372 10.6442Z" fill="#1347FF"></path><path d="M11.8455 14.4707C13.3085 14.4707 14.4946 12.7575 14.4946 10.6442C14.4946 8.53091 13.3085 6.81774 11.8455 6.81774C10.3824 6.81774 9.19636 8.53091 9.19636 10.6442C9.19636 12.7575 10.3824 14.4707 11.8455 14.4707Z" fill="#1347FF"></path><path fill-rule="evenodd" clip-rule="evenodd" d="M2.81568 0.315687L0 3.22501V19.8428L2.81548 22.7395H28.7532L31.5687 19.8428V3.21232L28.7532 0.315687H2.81568ZM3.55349 4.5895L4.65371 3.48223H26.9491L28.0088 4.59134V18.4831L26.9491 19.5923H4.65371L3.55349 18.485V4.5895Z" fill="#1347FF"></path><path d="M82.5759 8.18881L84.1827 6.55513H89.8657L92.4171 9.1537V21.151H89.2291V10.0931L88.3461 9.21496H84.1211L82.9712 10.3636V21.151H79.7781V10.0931L78.8951 9.21496H75.2194L73.5201 10.9354V21.151H70.327V6.55513H73.3353V8.55128L75.2502 6.55513H80.9947L82.5759 8.18881Z" fill="#1347FF"></path><path fill-rule="evenodd" clip-rule="evenodd" d="M53.7197 9.1537L56.2711 6.55513H64.9932L67.5446 9.1537V18.5525L64.9932 21.151H56.2711L53.7197 18.5525V9.1537ZM63.4736 18.4912L64.3258 17.6131H64.3309V10.0931L63.4787 9.21496H57.7958L56.9436 10.0931V17.6131L57.7906 18.4912H63.4736Z" fill="#1347FF"></path><path fill-rule="evenodd" clip-rule="evenodd" d="M140.34 6.55513L137.788 9.1537V18.5525L140.34 21.151H149.062L151.613 18.5525V9.1537L149.062 6.55513H140.34ZM148.394 17.6131L147.542 18.4912H141.859L141.007 17.6131V10.0931L141.859 9.21496H147.542L148.394 10.0931V17.6131Z" fill="#1347FF"></path><path d="M157.404 8.72996L159.529 6.55513H163.21V9.57743H159.288L157.589 11.2724V21.151H154.396V6.55513H157.404V8.72996Z" fill="#1347FF"></path><path fill-rule="evenodd" clip-rule="evenodd" d="M97.5456 6.55513L94.9942 9.1537V18.5525L97.5456 21.151H116.396L118.948 18.5525V9.1537L116.396 6.55513H97.5456ZM115.724 17.6131L114.872 18.4912H99.0601L98.2079 17.6131V10.0931L99.0601 9.21496H114.872L115.724 10.0931V17.6131Z" fill="#1347FF"></path><path fill-rule="evenodd" clip-rule="evenodd" d="M130.026 6.55513L131.787 8.36749V0H134.975V21.151H131.787V19.3693L130.026 21.151H123.948L121.397 18.5525V9.1537L123.948 6.55513H130.026ZM130.088 18.4912L131.787 16.8014V10.9354L130.088 9.21496H125.468L124.585 10.0931V17.6131L125.468 18.4912H130.088Z" fill="#1347FF"></path></svg> 