<?xml version="1.0" encoding="utf-8"?>
<svg id="master-artboard" viewBox="0 0 391.4006652832031 834.4821166992188" version="1.1"
    xmlns="http://www.w3.org/2000/svg" x="0px" y="0px" style="enable-background:new 0 0 1400 980;"
    width="29.14006652832031px" height="53.44821166992188px">
    <defs>
        <style id="ee-google-fonts">
            @import url(https://fonts.googleapis.com/css?family=Rubik:300,300italic,400,400italic,500,500italic,700,700italic,900,900italic);
        </style>
    </defs>
    <rect id="ee-background" x="0" y="0" width="391.4006652832031" height="834.4821166992188"
        style="fill: white; fill-opacity: 1; pointer-events: none;" />








































    <g transform="matrix(1.2130213975906372, 0, 0, 1.2130213975906372, -440.51679611206055, -102.99674987792973)">
        <title>android</title>
        <g opacity="0.1">







            <path d="M682.41,511.34c5,7.28,32.6,19.37,32.6,19.37s-1.26-30.12-6.24-37.4a16,16,0,0,0-26.35,18Z"
                transform="translate(-51.45 -46.05)" fill="#dc143c" />
        </g>
        <path d="M 365.51001 184.899994 H 372.51001 V 283.899994 H 365.51001 V 184.899994 Z" fill="#535461" />
        <path d="M 365.51001 317.899994 H 372.51001 V 373.899994 H 365.51001 V 317.899994 Z" fill="#535461" />
        <path
            d="M 417.610008 87.900002 H 638.410011 A 47.099998 47.099998 0 0 1 685.51001 135 V 724.800003 A 47.099998 47.099998 0 0 1 638.410011 771.900002 H 417.610008 A 47.099998 47.099998 0 0 1 370.51001 724.800003 V 135 A 47.099998 47.099998 0 0 1 417.610008 87.900002 Z"
            fill="#535461" />
        <path
            d="M 417.610008 119.900002 H 638.410011 A 47.099998 47.099998 0 0 1 685.51001 167 V 695.800003 A 47.099998 47.099998 0 0 1 638.410011 742.900002 H 417.610008 A 47.099998 47.099998 0 0 1 370.51001 695.800003 V 167 A 47.099998 47.099998 0 0 1 417.610008 119.900002 Z"
            fill="#dc143c" />
        <path
            d="M 506.01001 102.900002 H 551.01001 A 3.5 3.5 0 0 1 554.51001 106.400002 V 106.400002 A 3.5 3.5 0 0 1 551.01001 109.900002 H 506.01001 A 3.5 3.5 0 0 1 502.51001 106.400002 V 106.400002 A 3.5 3.5 0 0 1 506.01001 102.900002 Z"
            fill="#eaeaf3" />
        <path
            d="M 577.51001 106.900002 A 5 5 0 0 1 572.51001 111.900002 A 5 5 0 0 1 567.51001 106.900002 A 5 5 0 0 1 572.51001 101.900002 A 5 5 0 0 1 577.51001 106.900002 Z"
            fill="#eaeaf3" />
        <path
            d="M497.76,442.15v73a17.27,17.27,0,0,1-17.33,17.46c-9.64,0-19-7.81-19-17.46v-73c0-9.52,9.33-17.33,19-17.33A17.4,17.4,0,0,1,497.76,442.15Zm6.81,98.94a18.61,18.61,0,0,0,18.65,18.65h12.54l.19,38.51c0,23.25,34.79,23.07,34.79,0V559.75h23.44v38.51c0,23.13,35,23.19,35,0V559.75h12.73a18.59,18.59,0,0,0,18.53-18.65V428H504.57ZM660.86,421.92h-157c0-27,16.13-50.42,40.08-62.64l-12-22.25c-1.76-3.09,2.71-5,4.22-2.39l12.23,22.44a85.14,85.14,0,0,1,68.25,0l12.16-22.37c1.58-2.71,6-.69,4.22,2.39l-12,22.18C644.73,371.5,660.86,394.95,660.86,421.92Zm-107.58-35a6.62,6.62,0,0,0-6.62-6.62,6.62,6.62,0,0,0,0,13.23A6.62,6.62,0,0,0,553.28,386.94Zm71.47,0a6.52,6.52,0,1,0-6.43,6.62A6.58,6.58,0,0,0,624.75,386.94Zm59.74,37.88a17.28,17.28,0,0,0-17.33,17.33v73a17.39,17.39,0,0,0,17.33,17.46c9.71,0,19-7.81,19-17.46v-73C703.46,432.45,694.13,424.82,684.49,424.82Z"
            transform="translate(-51.45 -46.05)" fill="#fff" />
        <path d="M 454.01001 569.460022 H 519.01001 V 572.460022 H 454.01001 V 569.460022 Z" fill="#535461" />
        <path d="M 543.01001 569.460022 H 586.01001 V 572.460022 H 543.01001 V 569.460022 Z" fill="#535461" />
        <path d="M 397.01001 569.460022 H 440.01001 V 572.460022 H 397.01001 V 569.460022 Z" fill="#535461" />
        <path d="M 611.01001 569.460022 H 654.01001 V 572.460022 H 611.01001 V 569.460022 Z" fill="#535461" />
    </g>
</svg>